<?xml version="1.0" encoding="UTF-8"?>
<svg id="Layer_1" data-name="Layer 1" xmlns="http://www.w3.org/2000/svg" xmlns:xlink="http://www.w3.org/1999/xlink" viewBox="0 0 1920 1080">
  <defs>
    <style>
      .cls-1 {
        fill: #fff;
      }

      .cls-2 {
        fill: url(#linear-gradient);
      }
    </style>
    <linearGradient id="linear-gradient" x1="960" y1="86.09" x2="960" y2="2458.25" gradientUnits="userSpaceOnUse">
      <stop offset="0" stop-color="#101e4d"/>
      <stop offset=".25" stop-color="#5054a6"/>
      <stop offset=".62" stop-color="#f0a8d1"/>
      <stop offset="1" stop-color="#fedcdd"/>
    </linearGradient>
  </defs>
  <rect class="cls-2" x="0" width="1920" height="2625.09"/>
  <g>
    <path class="cls-1" d="M543.48,512.85c1.33,1.36,1.99,3.25,1.99,5.67v10.56h-5.51v-9.82c0-1.17-.31-2.07-.92-2.71-.62-.64-1.46-.96-2.54-.96s-1.93,.32-2.54,.96c-.62,.64-.92,1.54-.92,2.71v9.82h-5.51v-9.82c0-1.17-.31-2.07-.92-2.71-.62-.64-1.46-.96-2.54-.96s-1.93,.32-2.54,.96c-.62,.64-.92,1.54-.92,2.71v9.82h-5.54v-18.08h5.54v2.27c.56-.76,1.3-1.36,2.2-1.8,.91-.44,1.93-.66,3.08-.66,1.36,0,2.58,.29,3.65,.88,1.07,.58,1.91,1.42,2.51,2.49,.63-.99,1.48-1.8,2.56-2.43,1.08-.63,2.26-.94,3.53-.94,2.25,0,4.03,.68,5.36,2.04Z"/>
    <path class="cls-1" d="M549.31,515.11c.7-1.4,1.66-2.48,2.87-3.24,1.21-.76,2.56-1.13,4.05-1.13,1.27,0,2.39,.26,3.35,.78,.96,.52,1.7,1.2,2.22,2.04v-2.56h5.54v18.08h-5.54v-2.56c-.54,.84-1.29,1.52-2.25,2.04-.96,.52-2.08,.78-3.35,.78-1.47,0-2.81-.38-4.02-1.15-1.21-.77-2.17-1.86-2.87-3.27-.7-1.41-1.05-3.05-1.05-4.91s.35-3.49,1.05-4.89Zm11.34,1.65c-.77-.8-1.7-1.2-2.8-1.2s-2.04,.39-2.8,1.18c-.77,.79-1.15,1.87-1.15,3.26s.38,2.48,1.15,3.29c.77,.81,1.7,1.22,2.8,1.22s2.04-.4,2.8-1.2c.77-.8,1.15-1.89,1.15-3.27s-.38-2.47-1.15-3.27Z"/>
    <path class="cls-1" d="M571.31,515.11c.7-1.4,1.66-2.48,2.87-3.24,1.21-.76,2.56-1.13,4.05-1.13,1.27,0,2.39,.26,3.35,.78,.96,.52,1.7,1.2,2.22,2.04v-2.56h5.54v18.08h-5.54v-2.56c-.54,.84-1.29,1.52-2.25,2.04-.96,.52-2.08,.78-3.35,.78-1.47,0-2.81-.38-4.02-1.15-1.21-.77-2.17-1.86-2.87-3.27-.7-1.41-1.05-3.05-1.05-4.91s.35-3.49,1.05-4.89Zm11.34,1.65c-.77-.8-1.7-1.2-2.8-1.2s-2.04,.39-2.8,1.18c-.77,.79-1.15,1.87-1.15,3.26s.38,2.48,1.15,3.29c.77,.81,1.7,1.22,2.8,1.22s2.04-.4,2.8-1.2c.77-.8,1.15-1.89,1.15-3.27s-.38-2.47-1.15-3.27Z"/>
    <path class="cls-1" d="M602.44,515.6h-2.98v13.48h-5.54v-13.48h-2.01v-4.6h2.01v-.52c0-2.22,.64-3.92,1.91-5.07,1.27-1.16,3.14-1.73,5.61-1.73,.41,0,.71,.01,.91,.03v4.7c-1.06-.06-1.8,.09-2.24,.45-.43,.37-.65,1.03-.65,1.98v.16h2.98v4.6Z"/>
    <path class="cls-1" d="M630.37,511l-11.34,26.67h-5.96l4.15-9.2-7.36-17.47h6.19l4.18,11.31,4.15-11.31h5.99Z"/>
    <path class="cls-1" d="M632.33,515.11c.7-1.4,1.66-2.48,2.87-3.24,1.21-.76,2.56-1.13,4.05-1.13,1.27,0,2.39,.26,3.35,.78,.96,.52,1.7,1.2,2.22,2.04v-2.56h5.54v18.08h-5.54v-2.56c-.54,.84-1.29,1.52-2.25,2.04-.96,.52-2.08,.78-3.35,.78-1.47,0-2.81-.38-4.02-1.15-1.21-.77-2.17-1.86-2.87-3.27-.7-1.41-1.05-3.05-1.05-4.91s.35-3.49,1.05-4.89Zm11.34,1.65c-.77-.8-1.7-1.2-2.8-1.2s-2.04,.39-2.8,1.18c-.77,.79-1.15,1.87-1.15,3.26s.38,2.48,1.15,3.29c.77,.81,1.7,1.22,2.8,1.22s2.04-.4,2.8-1.2c.77-.8,1.15-1.89,1.15-3.27s-.38-2.47-1.15-3.27Z"/>
    <path class="cls-1" d="M664.39,528.53c-1.23-.54-2.2-1.28-2.92-2.22-.71-.94-1.11-1.99-1.2-3.16h5.48c.06,.63,.36,1.13,.88,1.52,.52,.39,1.16,.58,1.91,.58,.69,0,1.23-.13,1.6-.4,.38-.27,.57-.62,.57-1.05,0-.52-.27-.9-.81-1.15-.54-.25-1.42-.52-2.62-.83-1.3-.3-2.38-.62-3.24-.96-.86-.33-1.61-.86-2.24-1.59-.63-.72-.94-1.7-.94-2.93,0-1.04,.29-1.98,.86-2.84,.57-.85,1.41-1.53,2.53-2.03,1.11-.5,2.44-.75,3.97-.75,2.27,0,4.06,.56,5.36,1.69,1.31,1.12,2.06,2.61,2.25,4.47h-5.12c-.09-.63-.36-1.12-.83-1.49-.46-.37-1.07-.55-1.83-.55-.65,0-1.15,.12-1.49,.37-.35,.25-.52,.59-.52,1.02,0,.52,.28,.91,.83,1.17s1.41,.52,2.58,.78c1.34,.35,2.43,.69,3.27,1.02,.84,.33,1.58,.87,2.22,1.62,.64,.75,.97,1.74,.99,3,0,1.06-.3,2-.89,2.84-.59,.83-1.45,1.49-2.56,1.96-1.11,.48-2.4,.71-3.87,.71-1.58,0-2.98-.27-4.21-.81Z"/>
    <path class="cls-1" d="M679.28,515.11c.7-1.4,1.66-2.48,2.87-3.24,1.21-.76,2.56-1.13,4.05-1.13,1.27,0,2.39,.26,3.35,.78,.96,.52,1.7,1.2,2.22,2.04v-2.56h5.54v18.08h-5.54v-2.56c-.54,.84-1.29,1.52-2.25,2.04-.96,.52-2.08,.78-3.35,.78-1.47,0-2.81-.38-4.02-1.15-1.21-.77-2.17-1.86-2.87-3.27-.7-1.41-1.05-3.05-1.05-4.91s.35-3.49,1.05-4.89Zm11.34,1.65c-.77-.8-1.7-1.2-2.8-1.2s-2.04,.39-2.8,1.18c-.77,.79-1.15,1.87-1.15,3.26s.38,2.48,1.15,3.29c.77,.81,1.7,1.22,2.8,1.22s2.04-.4,2.8-1.2c.77-.8,1.15-1.89,1.15-3.27s-.38-2.47-1.15-3.27Z"/>
    <path class="cls-1" d="M719.8,511l-11.34,26.67h-5.96l4.15-9.2-7.36-17.47h6.19l4.18,11.31,4.15-11.31h5.99Z"/>
    <path class="cls-1" d="M721.76,515.11c.7-1.4,1.66-2.48,2.87-3.24,1.21-.76,2.56-1.13,4.05-1.13,1.27,0,2.39,.26,3.35,.78,.96,.52,1.7,1.2,2.22,2.04v-2.56h5.54v18.08h-5.54v-2.56c-.54,.84-1.29,1.52-2.25,2.04-.96,.52-2.08,.78-3.35,.78-1.47,0-2.81-.38-4.02-1.15-1.21-.77-2.17-1.86-2.87-3.27-.7-1.41-1.05-3.05-1.05-4.91s.35-3.49,1.05-4.89Zm11.34,1.65c-.77-.8-1.7-1.2-2.8-1.2s-2.04,.39-2.8,1.18c-.77,.79-1.15,1.87-1.15,3.26s.38,2.48,1.15,3.29c.77,.81,1.7,1.22,2.8,1.22s2.04-.4,2.8-1.2c.77-.8,1.15-1.89,1.15-3.27s-.38-2.47-1.15-3.27Z"/>
    <path class="cls-1" d="M759.9,512.86c1.26,1.37,1.9,3.26,1.9,5.65v10.56h-5.51v-9.82c0-1.21-.31-2.15-.94-2.82-.63-.67-1.47-1-2.53-1s-1.9,.33-2.53,1c-.63,.67-.94,1.61-.94,2.82v9.82h-5.54v-18.08h5.54v2.4c.56-.8,1.32-1.43,2.27-1.9,.95-.46,2.02-.7,3.21-.7,2.12,0,3.81,.69,5.07,2.06Z"/>
    <path class="cls-1" d="M775.87,511.52c.96,.52,1.7,1.2,2.22,2.04v-2.56h5.54v18.05c0,1.66-.33,3.17-.99,4.52-.66,1.35-1.66,2.42-3.01,3.22-1.35,.8-3.03,1.2-5.04,1.2-2.68,0-4.85-.63-6.51-1.9-1.66-1.26-2.61-2.98-2.85-5.14h5.48c.17,.69,.58,1.24,1.23,1.64,.65,.4,1.45,.6,2.4,.6,1.14,0,2.06-.33,2.74-.99,.68-.66,1.02-1.71,1.02-3.16v-2.56c-.54,.84-1.29,1.53-2.24,2.06-.95,.53-2.06,.79-3.34,.79-1.49,0-2.84-.38-4.05-1.15-1.21-.77-2.17-1.86-2.87-3.27-.7-1.41-1.05-3.05-1.05-4.91s.35-3.49,1.05-4.89c.7-1.4,1.66-2.48,2.87-3.24,1.21-.76,2.56-1.13,4.05-1.13,1.27,0,2.39,.26,3.35,.78Zm1.07,5.25c-.77-.8-1.7-1.2-2.8-1.2s-2.04,.39-2.8,1.18c-.77,.79-1.15,1.87-1.15,3.26s.38,2.48,1.15,3.29c.77,.81,1.7,1.22,2.8,1.22s2.04-.4,2.8-1.2c.77-.8,1.15-1.89,1.15-3.27s-.38-2.47-1.15-3.27Z"/>
    <path class="cls-1" d="M793.61,523.96l-3.6,9.3h-3.53l1.88-9.3h5.25Z"/>
    <path class="cls-1" d="M829.77,511l-4.89,18.08h-6.12l-2.85-11.73-2.95,11.73h-6.09l-4.93-18.08h5.54l2.56,12.93,3.05-12.93h5.87l3.08,12.86,2.53-12.86h5.22Z"/>
    <path class="cls-1" d="M848.83,521.37h-12.54c.09,1.12,.45,1.98,1.09,2.58,.64,.59,1.42,.89,2.35,.89,1.38,0,2.34-.58,2.88-1.75h5.9c-.3,1.19-.85,2.26-1.64,3.21-.79,.95-1.78,1.7-2.96,2.24-1.19,.54-2.52,.81-3.99,.81-1.77,0-3.35-.38-4.73-1.13-1.38-.76-2.46-1.84-3.24-3.24-.78-1.4-1.17-3.05-1.17-4.93s.38-3.52,1.15-4.93c.77-1.4,1.84-2.48,3.22-3.24,1.38-.76,2.97-1.13,4.76-1.13s3.31,.37,4.67,1.1c1.36,.73,2.42,1.78,3.19,3.14,.77,1.36,1.15,2.95,1.15,4.76,0,.52-.03,1.06-.1,1.62Zm-5.57-3.08c0-.95-.32-1.71-.97-2.27-.65-.56-1.46-.84-2.43-.84s-1.71,.27-2.35,.81-1.03,1.31-1.18,2.3h6.93Z"/>
    <path class="cls-1" d="M859.62,511.52c.97-.52,2.08-.78,3.34-.78,1.49,0,2.84,.38,4.05,1.13,1.21,.76,2.17,1.84,2.87,3.24,.7,1.4,1.05,3.04,1.05,4.89s-.35,3.49-1.05,4.91c-.7,1.42-1.66,2.51-2.87,3.27-1.21,.77-2.56,1.15-4.05,1.15-1.27,0-2.39-.25-3.34-.76s-1.7-1.18-2.24-2.02v2.53h-5.54v-23.98h5.54v8.46c.52-.84,1.26-1.52,2.24-2.04Zm4.52,5.23c-.77-.79-1.71-1.18-2.84-1.18s-2.04,.4-2.8,1.2c-.77,.8-1.15,1.89-1.15,3.27s.38,2.47,1.15,3.27c.77,.8,1.7,1.2,2.8,1.2s2.04-.41,2.82-1.22c.78-.81,1.17-1.91,1.17-3.29s-.38-2.47-1.15-3.26Z"/>
    <path class="cls-1" d="M889.93,512.86c1.26,1.37,1.9,3.26,1.9,5.65v10.56h-5.51v-9.82c0-1.21-.31-2.15-.94-2.82-.63-.67-1.47-1-2.53-1s-1.9,.33-2.53,1c-.63,.67-.94,1.61-.94,2.82v9.82h-5.54v-18.08h5.54v2.4c.56-.8,1.32-1.43,2.27-1.9,.95-.46,2.02-.7,3.21-.7,2.12,0,3.81,.69,5.07,2.06Z"/>
    <path class="cls-1" d="M914.15,511l-11.34,26.67h-5.96l4.15-9.2-7.36-17.47h6.19l4.18,11.31,4.15-11.31h5.99Z"/>
    <path class="cls-1" d="M916.11,515.11c.7-1.4,1.66-2.48,2.87-3.24,1.21-.76,2.56-1.13,4.05-1.13,1.27,0,2.39,.26,3.35,.78,.96,.52,1.7,1.2,2.22,2.04v-2.56h5.54v18.08h-5.54v-2.56c-.54,.84-1.29,1.52-2.25,2.04-.96,.52-2.08,.78-3.35,.78-1.47,0-2.81-.38-4.02-1.15-1.21-.77-2.17-1.86-2.87-3.27-.7-1.41-1.05-3.05-1.05-4.91s.35-3.49,1.05-4.89Zm11.34,1.65c-.77-.8-1.7-1.2-2.8-1.2s-2.04,.39-2.8,1.18c-.77,.79-1.15,1.87-1.15,3.26s.38,2.48,1.15,3.29c.77,.81,1.7,1.22,2.8,1.22s2.04-.4,2.8-1.2c.77-.8,1.15-1.89,1.15-3.27s-.38-2.47-1.15-3.27Z"/>
    <path class="cls-1" d="M955.25,511.52c.96,.52,1.7,1.2,2.22,2.04v-2.56h5.54v18.05c0,1.66-.33,3.17-.99,4.52s-1.66,2.42-3.01,3.22c-1.35,.8-3.03,1.2-5.04,1.2-2.68,0-4.85-.63-6.51-1.9-1.66-1.26-2.61-2.98-2.85-5.14h5.48c.17,.69,.58,1.24,1.23,1.64,.65,.4,1.45,.6,2.4,.6,1.14,0,2.06-.33,2.74-.99,.68-.66,1.02-1.71,1.02-3.16v-2.56c-.54,.84-1.29,1.53-2.24,2.06-.95,.53-2.06,.79-3.34,.79-1.49,0-2.84-.38-4.05-1.15-1.21-.77-2.17-1.86-2.87-3.27-.7-1.41-1.05-3.05-1.05-4.91s.35-3.49,1.05-4.89c.7-1.4,1.66-2.48,2.87-3.24,1.21-.76,2.56-1.13,4.05-1.13,1.27,0,2.39,.26,3.35,.78Zm1.07,5.25c-.77-.8-1.7-1.2-2.8-1.2s-2.04,.39-2.8,1.18c-.77,.79-1.15,1.87-1.15,3.26s.38,2.48,1.15,3.29c.77,.81,1.7,1.22,2.8,1.22s2.04-.4,2.8-1.2c.77-.8,1.15-1.89,1.15-3.27s-.38-2.47-1.15-3.27Z"/>
    <path class="cls-1" d="M966.98,515.11c.7-1.4,1.66-2.48,2.87-3.24,1.21-.76,2.56-1.13,4.05-1.13,1.27,0,2.39,.26,3.35,.78,.96,.52,1.7,1.2,2.22,2.04v-2.56h5.54v18.08h-5.54v-2.56c-.54,.84-1.29,1.52-2.25,2.04-.96,.52-2.08,.78-3.35,.78-1.47,0-2.81-.38-4.02-1.15-1.21-.77-2.17-1.86-2.87-3.27-.7-1.41-1.05-3.05-1.05-4.91s.35-3.49,1.05-4.89Zm11.34,1.65c-.77-.8-1.7-1.2-2.8-1.2s-2.04,.39-2.8,1.18c-.77,.79-1.15,1.87-1.15,3.26s.38,2.48,1.15,3.29c.77,.81,1.7,1.22,2.8,1.22s2.04-.4,2.8-1.2c.77-.8,1.15-1.89,1.15-3.27s-.38-2.47-1.15-3.27Z"/>
    <path class="cls-1" d="M1000.08,529.08l-5.51-7.58v7.58h-5.54v-23.98h5.54v13.25l5.48-7.36h6.84l-7.52,9.07,7.58,9.01h-6.87Z"/>
    <path class="cls-1" d="M1023.7,511.52c.97-.52,2.08-.78,3.34-.78,1.49,0,2.84,.38,4.05,1.13,1.21,.76,2.17,1.84,2.87,3.24,.7,1.4,1.05,3.04,1.05,4.89s-.35,3.49-1.05,4.91c-.7,1.42-1.66,2.51-2.87,3.27-1.21,.77-2.56,1.15-4.05,1.15-1.27,0-2.39-.25-3.34-.76-.95-.51-1.7-1.18-2.24-2.02v2.53h-5.54v-23.98h5.54v8.46c.52-.84,1.26-1.52,2.24-2.04Zm4.52,5.23c-.77-.79-1.71-1.18-2.83-1.18s-2.04,.4-2.8,1.2c-.77,.8-1.15,1.89-1.15,3.27s.38,2.47,1.15,3.27c.77,.8,1.7,1.2,2.8,1.2s2.04-.41,2.82-1.22,1.17-1.91,1.17-3.29-.38-2.47-1.15-3.26Z"/>
    <path class="cls-1" d="M1038.33,508.26c-.62-.57-.92-1.28-.92-2.12s.31-1.58,.92-2.16c.62-.57,1.41-.86,2.38-.86s1.73,.29,2.35,.86c.62,.57,.92,1.29,.92,2.16s-.31,1.55-.92,2.12c-.62,.57-1.4,.86-2.35,.86s-1.77-.29-2.38-.86Zm5.14,2.74v18.08h-5.54v-18.08h5.54Z"/>
    <path class="cls-1" d="M1050.63,528.53c-1.23-.54-2.2-1.28-2.92-2.22-.71-.94-1.11-1.99-1.2-3.16h5.48c.07,.63,.36,1.13,.88,1.52,.52,.39,1.16,.58,1.91,.58,.69,0,1.23-.13,1.6-.4s.57-.62,.57-1.05c0-.52-.27-.9-.81-1.15-.54-.25-1.42-.52-2.62-.83-1.3-.3-2.38-.62-3.24-.96-.86-.33-1.61-.86-2.24-1.59-.63-.72-.94-1.7-.94-2.93,0-1.04,.29-1.98,.86-2.84,.57-.85,1.42-1.53,2.53-2.03,1.11-.5,2.44-.75,3.97-.75,2.27,0,4.06,.56,5.36,1.69,1.31,1.12,2.06,2.61,2.25,4.47h-5.12c-.09-.63-.36-1.12-.83-1.49-.46-.37-1.08-.55-1.83-.55-.65,0-1.14,.12-1.49,.37-.35,.25-.52,.59-.52,1.02,0,.52,.28,.91,.83,1.17s1.41,.52,2.58,.78c1.34,.35,2.43,.69,3.27,1.02,.84,.33,1.58,.87,2.22,1.62,.64,.75,.97,1.74,.99,3,0,1.06-.3,2-.89,2.84-.59,.83-1.45,1.49-2.56,1.96-1.11,.48-2.4,.71-3.87,.71-1.58,0-2.98-.27-4.21-.81Z"/>
    <path class="cls-1" d="M1065.52,515.11c.7-1.4,1.66-2.48,2.87-3.24,1.21-.76,2.56-1.13,4.05-1.13,1.27,0,2.39,.26,3.35,.78,.96,.52,1.7,1.2,2.22,2.04v-2.56h5.54v18.08h-5.54v-2.56c-.54,.84-1.29,1.52-2.25,2.04-.96,.52-2.08,.78-3.35,.78-1.47,0-2.81-.38-4.02-1.15-1.21-.77-2.17-1.86-2.87-3.27-.7-1.41-1.05-3.05-1.05-4.91s.35-3.49,1.05-4.89Zm11.34,1.65c-.77-.8-1.7-1.2-2.8-1.2s-2.04,.39-2.8,1.18c-.77,.79-1.15,1.87-1.15,3.26s.38,2.48,1.15,3.29c.77,.81,1.7,1.22,2.8,1.22s2.04-.4,2.8-1.2c.77-.8,1.15-1.89,1.15-3.27s-.38-2.47-1.15-3.27Z"/>
    <path class="cls-1" d="M1094.39,515.11c.7-1.4,1.66-2.48,2.87-3.24,1.21-.76,2.56-1.13,4.05-1.13,1.19,0,2.27,.25,3.26,.75,.98,.5,1.75,1.17,2.32,2.01v-8.39h5.54v23.98h-5.54v-2.59c-.52,.86-1.26,1.56-2.22,2.07-.96,.52-2.08,.78-3.35,.78-1.49,0-2.84-.38-4.05-1.15-1.21-.77-2.17-1.86-2.87-3.27-.7-1.41-1.05-3.05-1.05-4.91s.35-3.49,1.05-4.89Zm11.34,1.65c-.77-.8-1.7-1.2-2.8-1.2s-2.04,.39-2.8,1.18c-.77,.79-1.15,1.87-1.15,3.26s.38,2.48,1.15,3.29c.77,.81,1.7,1.22,2.8,1.22s2.04-.4,2.8-1.2c.77-.8,1.15-1.89,1.15-3.27s-.38-2.47-1.15-3.27Z"/>
    <path class="cls-1" d="M1116.85,508.26c-.62-.57-.92-1.28-.92-2.12s.31-1.58,.92-2.16c.62-.57,1.41-.86,2.38-.86s1.73,.29,2.35,.86c.62,.57,.92,1.29,.92,2.16s-.31,1.55-.92,2.12c-.62,.57-1.4,.86-2.35,.86s-1.77-.29-2.38-.86Zm5.14,2.74v18.08h-5.54v-18.08h5.54Z"/>
    <path class="cls-1" d="M1133.78,511.52c.97-.52,2.08-.78,3.34-.78,1.49,0,2.84,.38,4.05,1.13,1.21,.76,2.17,1.84,2.87,3.24,.7,1.4,1.05,3.04,1.05,4.89s-.35,3.49-1.05,4.91c-.7,1.42-1.66,2.51-2.87,3.27-1.21,.77-2.56,1.15-4.05,1.15-1.27,0-2.39-.25-3.34-.76-.95-.51-1.7-1.18-2.24-2.02v2.53h-5.54v-23.98h5.54v8.46c.52-.84,1.26-1.52,2.24-2.04Zm4.52,5.23c-.77-.79-1.71-1.18-2.83-1.18s-2.04,.4-2.8,1.2c-.77,.8-1.15,1.89-1.15,3.27s.38,2.47,1.15,3.27c.77,.8,1.7,1.2,2.8,1.2s2.04-.41,2.82-1.22,1.17-1.91,1.17-3.29-.38-2.47-1.15-3.26Z"/>
    <path class="cls-1" d="M1165.86,511v18.08h-5.54v-2.46c-.56,.8-1.32,1.44-2.28,1.93-.96,.49-2.03,.73-3.19,.73-1.38,0-2.6-.31-3.66-.92s-1.88-1.51-2.46-2.67-.88-2.54-.88-4.12v-10.56h5.51v9.82c0,1.21,.31,2.15,.94,2.82,.63,.67,1.47,1,2.53,1s1.93-.33,2.56-1c.63-.67,.94-1.61,.94-2.82v-9.82h5.54Z"/>
    <path class="cls-1" d="M1180.89,529.08l-5.51-7.58v7.58h-5.54v-23.98h5.54v13.25l5.48-7.36h6.84l-7.52,9.07,7.58,9.01h-6.87Z"/>
    <path class="cls-1" d="M1189.82,515.11c.7-1.4,1.66-2.48,2.87-3.24,1.21-.76,2.56-1.13,4.05-1.13,1.27,0,2.39,.26,3.35,.78,.96,.52,1.7,1.2,2.22,2.04v-2.56h5.54v18.08h-5.54v-2.56c-.54,.84-1.29,1.52-2.25,2.04-.96,.52-2.08,.78-3.35,.78-1.47,0-2.81-.38-4.02-1.15-1.21-.77-2.17-1.86-2.87-3.27-.7-1.41-1.05-3.05-1.05-4.91s.35-3.49,1.05-4.89Zm11.34,1.65c-.77-.8-1.7-1.2-2.8-1.2s-2.04,.39-2.8,1.18c-.77,.79-1.15,1.87-1.15,3.26s.38,2.48,1.15,3.29c.77,.81,1.7,1.22,2.8,1.22s2.04-.4,2.8-1.2c.77-.8,1.15-1.89,1.15-3.27s-.38-2.47-1.15-3.27Z"/>
    <path class="cls-1" d="M1218.69,515.11c.7-1.4,1.66-2.48,2.87-3.24,1.21-.76,2.56-1.13,4.05-1.13,1.19,0,2.27,.25,3.26,.75,.98,.5,1.75,1.17,2.32,2.01v-8.39h5.54v23.98h-5.54v-2.59c-.52,.86-1.26,1.56-2.22,2.07-.96,.52-2.08,.78-3.35,.78-1.49,0-2.84-.38-4.05-1.15-1.21-.77-2.17-1.86-2.87-3.27-.7-1.41-1.05-3.05-1.05-4.91s.35-3.49,1.05-4.89Zm11.34,1.65c-.77-.8-1.7-1.2-2.8-1.2s-2.04,.39-2.8,1.18c-.77,.79-1.15,1.87-1.15,3.26s.38,2.48,1.15,3.29c.77,.81,1.7,1.22,2.8,1.22s2.04-.4,2.8-1.2c.77-.8,1.15-1.89,1.15-3.27s-.38-2.47-1.15-3.27Z"/>
    <path class="cls-1" d="M1240.69,515.11c.7-1.4,1.66-2.48,2.87-3.24,1.21-.76,2.56-1.13,4.05-1.13,1.27,0,2.39,.26,3.35,.78,.96,.52,1.7,1.2,2.22,2.04v-2.56h5.54v18.08h-5.54v-2.56c-.54,.84-1.29,1.52-2.25,2.04-.96,.52-2.08,.78-3.35,.78-1.47,0-2.81-.38-4.02-1.15-1.21-.77-2.17-1.86-2.87-3.27-.7-1.41-1.05-3.05-1.05-4.91s.35-3.49,1.05-4.89Zm11.34,1.65c-.77-.8-1.7-1.2-2.8-1.2s-2.04,.39-2.8,1.18c-.77,.79-1.15,1.87-1.15,3.26s.38,2.48,1.15,3.29c.77,.81,1.7,1.22,2.8,1.22s2.04-.4,2.8-1.2c.77-.8,1.15-1.89,1.15-3.27s-.38-2.47-1.15-3.27Z"/>
    <path class="cls-1" d="M1270.71,511.66c.97-.57,2.05-.86,3.24-.86v5.86h-1.52c-1.38,0-2.42,.3-3.11,.89-.69,.59-1.04,1.64-1.04,3.13v8.39h-5.54v-18.08h5.54v3.01c.65-.99,1.46-1.78,2.43-2.35Z"/>
    <path class="cls-1" d="M1277.01,508.26c-.62-.57-.92-1.28-.92-2.12s.31-1.58,.92-2.16c.62-.57,1.41-.86,2.38-.86s1.73,.29,2.35,.86c.62,.57,.92,1.29,.92,2.16s-.31,1.55-.92,2.12c-.62,.57-1.4,.86-2.35,.86s-1.77-.29-2.38-.86Zm5.14,2.74v18.08h-5.54v-18.08h5.54Z"/>
    <path class="cls-1" d="M1298.58,524.8h7.26v4.28h-12.8v-22.75h5.54v18.47Z"/>
    <path class="cls-1" d="M1308.44,515.11c.7-1.4,1.66-2.48,2.87-3.24,1.21-.76,2.56-1.13,4.05-1.13,1.27,0,2.39,.26,3.35,.78,.96,.52,1.7,1.2,2.22,2.04v-2.56h5.54v18.08h-5.54v-2.56c-.54,.84-1.29,1.52-2.25,2.04-.96,.52-2.08,.78-3.35,.78-1.47,0-2.81-.38-4.02-1.15-1.21-.77-2.17-1.86-2.87-3.27-.7-1.41-1.05-3.05-1.05-4.91s.35-3.49,1.05-4.89Zm11.34,1.65c-.77-.8-1.7-1.2-2.8-1.2s-2.04,.39-2.8,1.18c-.77,.79-1.15,1.87-1.15,3.26s.38,2.48,1.15,3.29c.77,.81,1.7,1.22,2.8,1.22s2.04-.4,2.8-1.2c.77-.8,1.15-1.89,1.15-3.27s-.38-2.47-1.15-3.27Z"/>
    <path class="cls-1" d="M1338.27,511.52c.95-.52,2.06-.78,3.34-.78,1.49,0,2.84,.38,4.05,1.13,1.21,.76,2.17,1.84,2.87,3.24,.7,1.4,1.05,3.04,1.05,4.89s-.35,3.49-1.05,4.91c-.7,1.42-1.66,2.51-2.87,3.27-1.21,.77-2.56,1.15-4.05,1.15-1.25,0-2.36-.26-3.32-.78s-1.71-1.19-2.25-2.01v11.15h-5.54v-26.7h5.54v2.56c.54-.84,1.29-1.52,2.24-2.04Zm4.52,5.23c-.77-.79-1.71-1.18-2.83-1.18s-2.04,.4-2.8,1.2c-.77,.8-1.15,1.89-1.15,3.27s.38,2.47,1.15,3.27c.77,.8,1.7,1.2,2.8,1.2s2.04-.41,2.82-1.22,1.17-1.91,1.17-3.29-.38-2.47-1.15-3.26Z"/>
    <path class="cls-1" d="M1362.57,524.38v4.7h-2.82c-2.01,0-3.58-.49-4.7-1.47-1.12-.98-1.69-2.59-1.69-4.81v-7.19h-2.2v-4.6h2.2v-4.41h5.54v4.41h3.63v4.6h-3.63v7.26c0,.54,.13,.93,.39,1.17,.26,.24,.69,.36,1.3,.36h1.98Z"/>
    <path class="cls-1" d="M1369.1,528.21c-1.42-.76-2.53-1.84-3.34-3.24-.81-1.4-1.21-3.05-1.21-4.93s.41-3.49,1.23-4.91c.82-1.41,1.94-2.5,3.37-3.26,1.43-.76,3.02-1.13,4.8-1.13s3.37,.38,4.79,1.13c1.43,.76,2.55,1.84,3.37,3.26,.82,1.42,1.23,3.05,1.23,4.91s-.42,3.49-1.25,4.91c-.83,1.42-1.97,2.5-3.4,3.26-1.44,.76-3.04,1.13-4.81,1.13s-3.36-.38-4.78-1.13Zm7.49-4.83c.75-.78,1.12-1.89,1.12-3.34s-.36-2.56-1.09-3.34c-.72-.78-1.62-1.17-2.67-1.17s-1.98,.38-2.69,1.15c-.71,.77-1.07,1.89-1.07,3.35s.35,2.56,1.05,3.34c.7,.78,1.58,1.17,2.64,1.17s1.96-.39,2.71-1.17Z"/>
    <path class="cls-1" d="M1394.07,511.52c.95-.52,2.06-.78,3.34-.78,1.49,0,2.84,.38,4.05,1.13,1.21,.76,2.17,1.84,2.87,3.24,.7,1.4,1.05,3.04,1.05,4.89s-.35,3.49-1.05,4.91c-.7,1.42-1.66,2.51-2.87,3.27-1.21,.77-2.56,1.15-4.05,1.15-1.25,0-2.36-.26-3.32-.78s-1.71-1.19-2.25-2.01v11.15h-5.54v-26.7h5.54v2.56c.54-.84,1.29-1.52,2.24-2.04Zm4.52,5.23c-.77-.79-1.71-1.18-2.83-1.18s-2.04,.4-2.8,1.2c-.77,.8-1.15,1.89-1.15,3.27s.38,2.47,1.15,3.27c.77,.8,1.7,1.2,2.8,1.2s2.04-.41,2.82-1.22,1.17-1.91,1.17-3.29-.38-2.47-1.15-3.26Z"/>
    <path class="cls-1" d="M542.25,567.41c-1.23-.54-2.2-1.28-2.92-2.22s-1.11-1.99-1.2-3.16h5.48c.06,.63,.36,1.13,.88,1.52,.52,.39,1.16,.58,1.91,.58,.69,0,1.23-.13,1.6-.41,.38-.27,.57-.62,.57-1.05,0-.52-.27-.9-.81-1.15-.54-.25-1.42-.52-2.62-.83-1.3-.3-2.38-.62-3.24-.96-.86-.33-1.61-.86-2.24-1.59-.63-.72-.94-1.7-.94-2.93,0-1.04,.29-1.98,.86-2.83,.57-.85,1.41-1.53,2.53-2.03,1.11-.5,2.44-.75,3.97-.75,2.27,0,4.06,.56,5.36,1.69s2.06,2.61,2.25,4.47h-5.12c-.09-.63-.36-1.12-.83-1.49-.46-.37-1.07-.55-1.83-.55-.65,0-1.15,.12-1.49,.37-.35,.25-.52,.59-.52,1.02,0,.52,.28,.91,.83,1.17s1.41,.52,2.58,.78c1.34,.35,2.43,.69,3.27,1.02,.84,.33,1.58,.87,2.22,1.62,.64,.75,.97,1.75,.99,3,0,1.06-.3,2-.89,2.83-.59,.83-1.45,1.49-2.56,1.96-1.11,.48-2.4,.71-3.87,.71-1.58,0-2.98-.27-4.21-.81Z"/>
    <path class="cls-1" d="M560.63,567.09c-1.42-.76-2.53-1.84-3.34-3.24-.81-1.4-1.22-3.05-1.22-4.92s.41-3.49,1.23-4.91c.82-1.41,1.94-2.5,3.37-3.26s3.02-1.13,4.8-1.13,3.37,.38,4.8,1.13,2.55,1.84,3.37,3.26c.82,1.42,1.23,3.05,1.23,4.91s-.42,3.49-1.25,4.91c-.83,1.42-1.97,2.5-3.4,3.26-1.44,.76-3.04,1.13-4.81,1.13s-3.36-.38-4.78-1.13Zm7.49-4.83c.75-.78,1.12-1.89,1.12-3.34s-.36-2.56-1.09-3.34c-.72-.78-1.62-1.17-2.67-1.17s-1.98,.38-2.69,1.15-1.07,1.89-1.07,3.35,.35,2.56,1.05,3.34c.7,.78,1.58,1.17,2.64,1.17s1.96-.39,2.71-1.17Z"/>
    <path class="cls-1" d="M577.77,554c.7-1.4,1.66-2.48,2.87-3.24,1.21-.76,2.56-1.13,4.05-1.13,1.27,0,2.39,.26,3.35,.78,.96,.52,1.7,1.2,2.22,2.04v-2.56h5.54v18.08h-5.54v-2.56c-.54,.84-1.29,1.52-2.25,2.04-.96,.52-2.08,.78-3.35,.78-1.47,0-2.81-.38-4.02-1.15-1.21-.77-2.17-1.86-2.87-3.27-.7-1.42-1.05-3.05-1.05-4.91s.35-3.49,1.05-4.89Zm11.34,1.65c-.77-.8-1.7-1.2-2.8-1.2s-2.04,.39-2.8,1.18c-.77,.79-1.15,1.87-1.15,3.26s.38,2.48,1.15,3.29c.77,.81,1.7,1.21,2.8,1.21s2.04-.4,2.8-1.2c.77-.8,1.15-1.89,1.15-3.27s-.38-2.47-1.15-3.27Z"/>
    <path class="cls-1" d="M605.37,543.99v23.98h-5.54v-23.98h5.54Z"/>
    <path class="cls-1" d="M625.47,551.75c1.26,1.37,1.9,3.26,1.9,5.65v10.56h-5.51v-9.82c0-1.21-.31-2.15-.94-2.82-.63-.67-1.47-1-2.53-1s-1.9,.33-2.53,1c-.63,.67-.94,1.61-.94,2.82v9.82h-5.54v-18.08h5.54v2.4c.56-.8,1.32-1.43,2.27-1.9,.95-.46,2.02-.7,3.21-.7,2.12,0,3.81,.69,5.07,2.06Z"/>
    <path class="cls-1" d="M649.69,549.88l-11.34,26.67h-5.96l4.15-9.2-7.36-17.47h6.19l4.18,11.31,4.15-11.31h5.99Z"/>
    <path class="cls-1" d="M651.65,554c.7-1.4,1.66-2.48,2.87-3.24,1.21-.76,2.56-1.13,4.05-1.13,1.27,0,2.39,.26,3.35,.78,.96,.52,1.7,1.2,2.22,2.04v-2.56h5.54v18.08h-5.54v-2.56c-.54,.84-1.29,1.52-2.25,2.04-.96,.52-2.08,.78-3.35,.78-1.47,0-2.81-.38-4.02-1.15-1.21-.77-2.17-1.86-2.87-3.27-.7-1.42-1.05-3.05-1.05-4.91s.35-3.49,1.05-4.89Zm11.34,1.65c-.77-.8-1.7-1.2-2.8-1.2s-2.04,.39-2.8,1.18c-.77,.79-1.15,1.87-1.15,3.26s.38,2.48,1.15,3.29c.77,.81,1.7,1.21,2.8,1.21s2.04-.4,2.8-1.2c.77-.8,1.15-1.89,1.15-3.27s-.38-2.47-1.15-3.27Z"/>
    <path class="cls-1" d="M683.72,567.41c-1.23-.54-2.2-1.28-2.92-2.22s-1.11-1.99-1.2-3.16h5.48c.06,.63,.36,1.13,.88,1.52,.52,.39,1.16,.58,1.91,.58,.69,0,1.23-.13,1.6-.41,.38-.27,.57-.62,.57-1.05,0-.52-.27-.9-.81-1.15-.54-.25-1.42-.52-2.62-.83-1.3-.3-2.38-.62-3.24-.96-.86-.33-1.61-.86-2.24-1.59-.63-.72-.94-1.7-.94-2.93,0-1.04,.29-1.98,.86-2.83,.57-.85,1.41-1.53,2.53-2.03,1.11-.5,2.44-.75,3.97-.75,2.27,0,4.06,.56,5.36,1.69s2.06,2.61,2.25,4.47h-5.12c-.09-.63-.36-1.12-.83-1.49-.46-.37-1.07-.55-1.83-.55-.65,0-1.15,.12-1.49,.37-.35,.25-.52,.59-.52,1.02,0,.52,.28,.91,.83,1.17s1.41,.52,2.58,.78c1.34,.35,2.43,.69,3.27,1.02,.84,.33,1.58,.87,2.22,1.62,.64,.75,.97,1.75,.99,3,0,1.06-.3,2-.89,2.83-.59,.83-1.45,1.49-2.56,1.96-1.11,.48-2.4,.71-3.87,.71-1.58,0-2.98-.27-4.21-.81Z"/>
    <path class="cls-1" d="M698.61,554c.7-1.4,1.66-2.48,2.87-3.24,1.21-.76,2.56-1.13,4.05-1.13,1.27,0,2.39,.26,3.35,.78,.96,.52,1.7,1.2,2.22,2.04v-2.56h5.54v18.08h-5.54v-2.56c-.54,.84-1.29,1.52-2.25,2.04-.96,.52-2.08,.78-3.35,.78-1.47,0-2.81-.38-4.02-1.15-1.21-.77-2.17-1.86-2.87-3.27-.7-1.42-1.05-3.05-1.05-4.91s.35-3.49,1.05-4.89Zm11.34,1.65c-.77-.8-1.7-1.2-2.8-1.2s-2.04,.39-2.8,1.18c-.77,.79-1.15,1.87-1.15,3.26s.38,2.48,1.15,3.29c.77,.81,1.7,1.21,2.8,1.21s2.04-.4,2.8-1.2c.77-.8,1.15-1.89,1.15-3.27s-.38-2.47-1.15-3.27Z"/>
    <path class="cls-1" d="M739.13,549.88l-11.34,26.67h-5.96l4.15-9.2-7.36-17.47h6.19l4.18,11.31,4.15-11.31h5.99Z"/>
    <path class="cls-1" d="M741.09,554c.7-1.4,1.66-2.48,2.87-3.24,1.21-.76,2.56-1.13,4.05-1.13,1.27,0,2.39,.26,3.35,.78,.96,.52,1.7,1.2,2.22,2.04v-2.56h5.54v18.08h-5.54v-2.56c-.54,.84-1.29,1.52-2.25,2.04-.96,.52-2.08,.78-3.35,.78-1.47,0-2.81-.38-4.02-1.15-1.21-.77-2.17-1.86-2.87-3.27-.7-1.42-1.05-3.05-1.05-4.91s.35-3.49,1.05-4.89Zm11.34,1.65c-.77-.8-1.7-1.2-2.8-1.2s-2.04,.39-2.8,1.18c-.77,.79-1.15,1.87-1.15,3.26s.38,2.48,1.15,3.29c.77,.81,1.7,1.21,2.8,1.21s2.04-.4,2.8-1.2c.77-.8,1.15-1.89,1.15-3.27s-.38-2.47-1.15-3.27Z"/>
    <path class="cls-1" d="M780.08,563.27v4.7h-2.82c-2.01,0-3.58-.49-4.7-1.47-1.12-.98-1.69-2.59-1.69-4.81v-7.19h-2.2v-4.6h2.2v-4.41h5.54v4.41h3.63v4.6h-3.63v7.26c0,.54,.13,.93,.39,1.17,.26,.24,.69,.36,1.3,.36h1.98Z"/>
    <path class="cls-1" d="M783.57,547.14c-.62-.57-.92-1.28-.92-2.12s.31-1.58,.92-2.16,1.41-.86,2.38-.86,1.73,.29,2.35,.86,.92,1.29,.92,2.16-.31,1.55-.92,2.12-1.4,.86-2.35,.86-1.77-.29-2.38-.86Zm5.14,2.74v18.08h-5.54v-18.08h5.54Z"/>
    <path class="cls-1" d="M792.67,554c.7-1.4,1.66-2.48,2.87-3.24,1.21-.76,2.56-1.13,4.05-1.13,1.19,0,2.27,.25,3.26,.75,.98,.5,1.75,1.17,2.32,2.01v-8.39h5.54v23.98h-5.54v-2.59c-.52,.86-1.26,1.55-2.22,2.07-.96,.52-2.08,.78-3.35,.78-1.49,0-2.84-.38-4.05-1.15-1.21-.77-2.17-1.86-2.87-3.27-.7-1.42-1.05-3.05-1.05-4.91s.35-3.49,1.05-4.89Zm11.34,1.65c-.77-.8-1.7-1.2-2.8-1.2s-2.04,.39-2.8,1.18c-.77,.79-1.15,1.87-1.15,3.26s.38,2.48,1.15,3.29c.77,.81,1.7,1.21,2.8,1.21s2.04-.4,2.8-1.2c.77-.8,1.15-1.89,1.15-3.27s-.38-2.47-1.15-3.27Z"/>
    <path class="cls-1" d="M814.67,554c.7-1.4,1.66-2.48,2.87-3.24,1.21-.76,2.56-1.13,4.05-1.13,1.27,0,2.39,.26,3.35,.78,.96,.52,1.7,1.2,2.22,2.04v-2.56h5.54v18.08h-5.54v-2.56c-.54,.84-1.29,1.52-2.25,2.04-.96,.52-2.08,.78-3.35,.78-1.47,0-2.81-.38-4.02-1.15-1.21-.77-2.17-1.86-2.87-3.27-.7-1.42-1.05-3.05-1.05-4.91s.35-3.49,1.05-4.89Zm11.34,1.65c-.77-.8-1.7-1.2-2.8-1.2s-2.04,.39-2.8,1.18c-.77,.79-1.15,1.87-1.15,3.26s.38,2.48,1.15,3.29c.77,.81,1.7,1.21,2.8,1.21s2.04-.4,2.8-1.2c.77-.8,1.15-1.89,1.15-3.27s-.38-2.47-1.15-3.27Z"/>
    <path class="cls-1" d="M847.77,567.96l-5.51-7.58v7.58h-5.54v-23.98h5.54v13.25l5.48-7.36h6.84l-7.52,9.07,7.58,9.01h-6.87Z"/>
    <path class="cls-1" d="M892.05,551.73c1.33,1.36,1.99,3.25,1.99,5.67v10.56h-5.51v-9.82c0-1.17-.31-2.07-.92-2.71-.62-.64-1.46-.96-2.54-.96s-1.93,.32-2.54,.96c-.62,.64-.92,1.54-.92,2.71v9.82h-5.51v-9.82c0-1.17-.31-2.07-.92-2.71-.62-.64-1.46-.96-2.54-.96s-1.93,.32-2.54,.96c-.62,.64-.92,1.54-.92,2.71v9.82h-5.54v-18.08h5.54v2.27c.56-.76,1.3-1.36,2.2-1.8s1.93-.66,3.08-.66c1.36,0,2.58,.29,3.65,.88s1.91,1.42,2.51,2.5c.63-.99,1.48-1.8,2.56-2.43,1.08-.63,2.26-.94,3.53-.94,2.25,0,4.03,.68,5.36,2.04Z"/>
    <path class="cls-1" d="M914.88,560.25h-12.54c.09,1.12,.45,1.98,1.09,2.58,.64,.59,1.42,.89,2.35,.89,1.38,0,2.34-.58,2.88-1.75h5.9c-.3,1.19-.85,2.26-1.64,3.21-.79,.95-1.78,1.7-2.96,2.24-1.19,.54-2.52,.81-3.99,.81-1.77,0-3.35-.38-4.73-1.13-1.38-.76-2.46-1.84-3.24-3.24-.78-1.4-1.17-3.05-1.17-4.92s.38-3.52,1.15-4.93c.77-1.4,1.84-2.48,3.22-3.24,1.38-.76,2.97-1.13,4.76-1.13s3.31,.37,4.67,1.1c1.36,.74,2.42,1.78,3.19,3.14,.77,1.36,1.15,2.95,1.15,4.76,0,.52-.03,1.06-.1,1.62Zm-5.57-3.08c0-.95-.32-1.71-.97-2.27-.65-.56-1.46-.84-2.43-.84s-1.71,.27-2.35,.81-1.03,1.31-1.18,2.3h6.93Z"/>
    <path class="cls-1" d="M933.98,551.75c1.26,1.37,1.9,3.26,1.9,5.65v10.56h-5.51v-9.82c0-1.21-.31-2.15-.94-2.82-.63-.67-1.47-1-2.53-1s-1.9,.33-2.53,1c-.63,.67-.94,1.61-.94,2.82v9.82h-5.54v-18.08h5.54v2.4c.56-.8,1.32-1.43,2.27-1.9,.95-.46,2.02-.7,3.21-.7,2.12,0,3.81,.69,5.07,2.06Z"/>
    <path class="cls-1" d="M949.96,550.4c.96,.52,1.7,1.2,2.22,2.04v-2.56h5.54v18.05c0,1.66-.33,3.17-.99,4.52-.66,1.35-1.66,2.42-3.01,3.22-1.35,.8-3.03,1.2-5.04,1.2-2.68,0-4.85-.63-6.51-1.9-1.66-1.26-2.61-2.98-2.85-5.14h5.48c.17,.69,.58,1.24,1.23,1.64,.65,.4,1.45,.6,2.4,.6,1.14,0,2.06-.33,2.74-.99,.68-.66,1.02-1.71,1.02-3.16v-2.56c-.54,.84-1.29,1.53-2.24,2.06-.95,.53-2.06,.79-3.34,.79-1.49,0-2.84-.38-4.05-1.15-1.21-.77-2.17-1.86-2.87-3.27-.7-1.42-1.05-3.05-1.05-4.91s.35-3.49,1.05-4.89c.7-1.4,1.66-2.48,2.87-3.24,1.21-.76,2.56-1.13,4.05-1.13,1.27,0,2.39,.26,3.35,.78Zm1.07,5.25c-.77-.8-1.7-1.2-2.8-1.2s-2.04,.39-2.8,1.18c-.77,.79-1.15,1.87-1.15,3.26s.38,2.48,1.15,3.29c.77,.81,1.7,1.21,2.8,1.21s2.04-.4,2.8-1.2c.77-.8,1.15-1.89,1.15-3.27s-.38-2.47-1.15-3.27Z"/>
    <path class="cls-1" d="M978.68,560.25h-12.54c.09,1.12,.45,1.98,1.08,2.58,.64,.59,1.42,.89,2.35,.89,1.38,0,2.34-.58,2.88-1.75h5.9c-.3,1.19-.85,2.26-1.64,3.21-.79,.95-1.78,1.7-2.96,2.24-1.19,.54-2.52,.81-3.98,.81-1.77,0-3.35-.38-4.73-1.13-1.38-.76-2.46-1.84-3.24-3.24-.78-1.4-1.17-3.05-1.17-4.92s.38-3.52,1.15-4.93c.77-1.4,1.84-2.48,3.22-3.24s2.97-1.13,4.76-1.13,3.3,.37,4.67,1.1c1.36,.74,2.42,1.78,3.19,3.14,.77,1.36,1.15,2.95,1.15,4.76,0,.52-.03,1.06-.1,1.62Zm-5.57-3.08c0-.95-.32-1.71-.97-2.27s-1.46-.84-2.43-.84-1.71,.27-2.35,.81c-.64,.54-1.03,1.31-1.18,2.3h6.94Z"/>
    <path class="cls-1" d="M989.67,550.55c.97-.57,2.05-.86,3.24-.86v5.86h-1.52c-1.38,0-2.42,.3-3.11,.89-.69,.59-1.04,1.64-1.04,3.13v8.39h-5.54v-18.08h5.54v3.01c.65-.99,1.46-1.78,2.43-2.35Z"/>
    <path class="cls-1" d="M1005.64,563.27v4.7h-2.82c-2.01,0-3.58-.49-4.7-1.47-1.12-.98-1.69-2.59-1.69-4.81v-7.19h-2.2v-4.6h2.2v-4.41h5.54v4.41h3.63v4.6h-3.63v7.26c0,.54,.13,.93,.39,1.17,.26,.24,.69,.36,1.3,.36h1.98Z"/>
    <path class="cls-1" d="M1009.12,547.14c-.62-.57-.92-1.28-.92-2.12s.31-1.58,.92-2.16,1.41-.86,2.38-.86,1.73,.29,2.35,.86c.62,.57,.92,1.29,.92,2.16s-.31,1.55-.92,2.12c-.62,.57-1.4,.86-2.35,.86s-1.77-.29-2.38-.86Zm5.14,2.74v18.08h-5.54v-18.08h5.54Z"/>
    <path class="cls-1" d="M1025.19,554c.77-1.4,1.84-2.48,3.21-3.24,1.37-.76,2.94-1.13,4.71-1.13,2.27,0,4.16,.59,5.69,1.78,1.52,1.19,2.52,2.86,3,5.02h-5.9c-.5-1.38-1.46-2.07-2.88-2.07-1.02,0-1.83,.39-2.43,1.18-.61,.79-.91,1.92-.91,3.39s.3,2.6,.91,3.39c.6,.79,1.41,1.18,2.43,1.18,1.43,0,2.39-.69,2.88-2.07h5.9c-.48,2.12-1.48,3.78-3.01,4.99-1.53,1.21-3.42,1.81-5.67,1.81-1.77,0-3.34-.38-4.71-1.13-1.37-.76-2.44-1.84-3.21-3.24-.77-1.4-1.15-3.05-1.15-4.92s.38-3.52,1.15-4.93Z"/>
    <path class="cls-1" d="M1044.7,554c.7-1.4,1.66-2.48,2.87-3.24s2.56-1.13,4.05-1.13c1.27,0,2.39,.26,3.35,.78,.96,.52,1.7,1.2,2.22,2.04v-2.56h5.54v18.08h-5.54v-2.56c-.54,.84-1.29,1.52-2.25,2.04-.96,.52-2.08,.78-3.35,.78-1.47,0-2.81-.38-4.02-1.15s-2.17-1.86-2.87-3.27c-.7-1.42-1.05-3.05-1.05-4.91s.35-3.49,1.05-4.89Zm11.34,1.65c-.77-.8-1.7-1.2-2.8-1.2s-2.04,.39-2.8,1.18c-.77,.79-1.15,1.87-1.15,3.26s.38,2.48,1.15,3.29c.77,.81,1.7,1.21,2.8,1.21s2.04-.4,2.8-1.2c.77-.8,1.15-1.89,1.15-3.27s-.38-2.47-1.15-3.27Z"/>
    <path class="cls-1" d="M1074.72,550.55c.97-.57,2.05-.86,3.24-.86v5.86h-1.52c-1.38,0-2.42,.3-3.11,.89-.69,.59-1.04,1.64-1.04,3.13v8.39h-5.54v-18.08h5.54v3.01c.65-.99,1.46-1.78,2.43-2.35Z"/>
    <path class="cls-1" d="M1080.57,554c.7-1.4,1.66-2.48,2.87-3.24s2.56-1.13,4.05-1.13c1.27,0,2.39,.26,3.35,.78,.96,.52,1.7,1.2,2.22,2.04v-2.56h5.54v18.08h-5.54v-2.56c-.54,.84-1.29,1.52-2.25,2.04-.96,.52-2.08,.78-3.35,.78-1.47,0-2.81-.38-4.02-1.15s-2.17-1.86-2.87-3.27c-.7-1.42-1.05-3.05-1.05-4.91s.35-3.49,1.05-4.89Zm11.34,1.65c-.77-.8-1.7-1.2-2.8-1.2s-2.04,.39-2.8,1.18c-.77,.79-1.15,1.87-1.15,3.26s.38,2.48,1.15,3.29c.77,.81,1.7,1.21,2.8,1.21s2.04-.4,2.8-1.2c.77-.8,1.15-1.89,1.15-3.27s-.38-2.47-1.15-3.27Z"/>
    <path class="cls-1" d="M1117.46,550.55c.97-.57,2.05-.86,3.24-.86v5.86h-1.52c-1.38,0-2.42,.3-3.11,.89-.69,.59-1.04,1.64-1.04,3.13v8.39h-5.54v-18.08h5.54v3.01c.65-.99,1.46-1.78,2.43-2.35Z"/>
    <path class="cls-1" d="M1140.31,560.25h-12.54c.09,1.12,.45,1.98,1.08,2.58,.64,.59,1.42,.89,2.35,.89,1.38,0,2.34-.58,2.88-1.75h5.9c-.3,1.19-.85,2.26-1.64,3.21-.79,.95-1.78,1.7-2.96,2.24-1.19,.54-2.52,.81-3.99,.81-1.77,0-3.35-.38-4.73-1.13-1.38-.76-2.46-1.84-3.24-3.24-.78-1.4-1.17-3.05-1.17-4.92s.38-3.52,1.15-4.93,1.84-2.48,3.22-3.24c1.38-.76,2.97-1.13,4.76-1.13s3.31,.37,4.67,1.1c1.36,.74,2.42,1.78,3.19,3.14,.77,1.36,1.15,2.95,1.15,4.76,0,.52-.03,1.06-.1,1.62Zm-5.57-3.08c0-.95-.32-1.71-.97-2.27-.65-.56-1.46-.84-2.43-.84s-1.71,.27-2.35,.81c-.64,.54-1.03,1.31-1.18,2.3h6.93Z"/>
    <path class="cls-1" d="M1146.46,567.41c-1.23-.54-2.2-1.28-2.92-2.22-.71-.94-1.11-1.99-1.2-3.16h5.48c.07,.63,.36,1.13,.88,1.52s1.16,.58,1.91,.58c.69,0,1.23-.13,1.6-.41s.57-.62,.57-1.05c0-.52-.27-.9-.81-1.15-.54-.25-1.42-.52-2.62-.83-1.3-.3-2.38-.62-3.24-.96-.86-.33-1.61-.86-2.24-1.59s-.94-1.7-.94-2.93c0-1.04,.29-1.98,.86-2.83s1.42-1.53,2.53-2.03c1.11-.5,2.44-.75,3.97-.75,2.27,0,4.06,.56,5.36,1.69,1.31,1.12,2.06,2.61,2.25,4.47h-5.12c-.09-.63-.36-1.12-.83-1.49-.46-.37-1.08-.55-1.83-.55-.65,0-1.14,.12-1.49,.37s-.52,.59-.52,1.02c0,.52,.28,.91,.83,1.17s1.41,.52,2.58,.78c1.34,.35,2.43,.69,3.27,1.02,.84,.33,1.58,.87,2.22,1.62,.64,.75,.97,1.75,.99,3,0,1.06-.3,2-.89,2.83-.59,.83-1.45,1.49-2.56,1.96-1.11,.48-2.4,.71-3.87,.71-1.58,0-2.98-.27-4.21-.81Z"/>
    <path class="cls-1" d="M1169.18,550.4c.95-.52,2.06-.78,3.34-.78,1.49,0,2.84,.38,4.05,1.13s2.17,1.84,2.87,3.24c.7,1.4,1.05,3.04,1.05,4.89s-.35,3.49-1.05,4.91c-.7,1.42-1.66,2.51-2.87,3.27s-2.56,1.15-4.05,1.15c-1.25,0-2.36-.26-3.32-.78s-1.71-1.19-2.25-2.01v11.15h-5.54v-26.7h5.54v2.56c.54-.84,1.29-1.52,2.24-2.04Zm4.52,5.23c-.77-.79-1.71-1.18-2.83-1.18s-2.04,.4-2.8,1.2c-.77,.8-1.15,1.89-1.15,3.27s.38,2.47,1.15,3.27c.77,.8,1.7,1.2,2.8,1.2s2.04-.4,2.82-1.21,1.17-1.91,1.17-3.29-.38-2.47-1.15-3.26Z"/>
    <path class="cls-1" d="M1186.85,567.09c-1.42-.76-2.53-1.84-3.34-3.24-.81-1.4-1.21-3.05-1.21-4.92s.41-3.49,1.23-4.91c.82-1.41,1.94-2.5,3.37-3.26s3.02-1.13,4.8-1.13,3.37,.38,4.79,1.13,2.55,1.84,3.37,3.26c.82,1.42,1.23,3.05,1.23,4.91s-.42,3.49-1.25,4.91c-.83,1.42-1.97,2.5-3.4,3.26-1.44,.76-3.04,1.13-4.81,1.13s-3.36-.38-4.78-1.13Zm7.49-4.83c.75-.78,1.12-1.89,1.12-3.34s-.36-2.56-1.09-3.34-1.62-1.17-2.67-1.17-1.98,.38-2.69,1.15-1.07,1.89-1.07,3.35,.35,2.56,1.05,3.34c.7,.78,1.58,1.17,2.64,1.17s1.96-.39,2.71-1.17Z"/>
    <path class="cls-1" d="M1220.13,551.75c1.26,1.37,1.9,3.26,1.9,5.65v10.56h-5.51v-9.82c0-1.21-.31-2.15-.94-2.82-.63-.67-1.47-1-2.53-1s-1.9,.33-2.53,1c-.63,.67-.94,1.61-.94,2.82v9.82h-5.54v-18.08h5.54v2.4c.56-.8,1.32-1.43,2.27-1.9,.95-.46,2.02-.7,3.21-.7,2.12,0,3.81,.69,5.07,2.06Z"/>
    <path class="cls-1" d="M1229.03,567.41c-1.23-.54-2.2-1.28-2.92-2.22-.71-.94-1.11-1.99-1.2-3.16h5.48c.07,.63,.36,1.13,.88,1.52s1.16,.58,1.91,.58c.69,0,1.23-.13,1.6-.41s.57-.62,.57-1.05c0-.52-.27-.9-.81-1.15-.54-.25-1.42-.52-2.62-.83-1.3-.3-2.38-.62-3.24-.96-.86-.33-1.61-.86-2.24-1.59s-.94-1.7-.94-2.93c0-1.04,.29-1.98,.86-2.83s1.42-1.53,2.53-2.03c1.11-.5,2.44-.75,3.97-.75,2.27,0,4.06,.56,5.36,1.69,1.31,1.12,2.06,2.61,2.25,4.47h-5.12c-.09-.63-.36-1.12-.83-1.49-.46-.37-1.08-.55-1.83-.55-.65,0-1.14,.12-1.49,.37s-.52,.59-.52,1.02c0,.52,.28,.91,.83,1.17s1.41,.52,2.58,.78c1.34,.35,2.43,.69,3.27,1.02,.84,.33,1.58,.87,2.22,1.62,.64,.75,.97,1.75,.99,3,0,1.06-.3,2-.89,2.83-.59,.83-1.45,1.49-2.56,1.96-1.11,.48-2.4,.71-3.87,.71-1.58,0-2.98-.27-4.21-.81Z"/>
    <path class="cls-1" d="M1244.37,547.14c-.62-.57-.92-1.28-.92-2.12s.31-1.58,.92-2.16,1.41-.86,2.38-.86,1.73,.29,2.35,.86c.62,.57,.92,1.29,.92,2.16s-.31,1.55-.92,2.12c-.62,.57-1.4,.86-2.35,.86s-1.77-.29-2.38-.86Zm5.14,2.74v18.08h-5.54v-18.08h5.54Z"/>
    <path class="cls-1" d="M1261.66,562.78l3.92-12.9h5.9l-6.42,18.08h-6.84l-6.42-18.08h5.93l3.92,12.9Z"/>
    <path class="cls-1" d="M1290.75,560.25h-12.54c.09,1.12,.45,1.98,1.08,2.58,.64,.59,1.42,.89,2.35,.89,1.38,0,2.34-.58,2.88-1.75h5.9c-.3,1.19-.85,2.26-1.64,3.21-.79,.95-1.78,1.7-2.96,2.24-1.19,.54-2.52,.81-3.99,.81-1.77,0-3.35-.38-4.73-1.13-1.38-.76-2.46-1.84-3.24-3.24-.78-1.4-1.17-3.05-1.17-4.92s.38-3.52,1.15-4.93,1.84-2.48,3.22-3.24c1.38-.76,2.97-1.13,4.76-1.13s3.31,.37,4.67,1.1c1.36,.74,2.42,1.78,3.19,3.14,.77,1.36,1.15,2.95,1.15,4.76,0,.52-.03,1.06-.1,1.62Zm-5.57-3.08c0-.95-.32-1.71-.97-2.27-.65-.56-1.46-.84-2.43-.84s-1.71,.27-2.35,.81c-.64,.54-1.03,1.31-1.18,2.3h6.93Z"/>
    <path class="cls-1" d="M1316.74,551.75c1.25,1.37,1.88,3.26,1.88,5.65v10.56h-5.51v-9.82c0-1.21-.31-2.15-.94-2.82-.63-.67-1.47-1-2.53-1s-1.9,.33-2.53,1c-.63,.67-.94,1.61-.94,2.82v9.82h-5.54v-23.98h5.54v8.33c.56-.8,1.33-1.44,2.3-1.91s2.06-.71,3.27-.71c2.07,0,3.74,.69,4.99,2.06Z"/>
    <path class="cls-1" d="M1339.42,560.25h-12.54c.09,1.12,.45,1.98,1.08,2.58,.64,.59,1.42,.89,2.35,.89,1.38,0,2.34-.58,2.88-1.75h5.9c-.3,1.19-.85,2.26-1.64,3.21-.79,.95-1.78,1.7-2.96,2.24-1.19,.54-2.52,.81-3.99,.81-1.77,0-3.35-.38-4.73-1.13-1.38-.76-2.46-1.84-3.24-3.24-.78-1.4-1.17-3.05-1.17-4.92s.38-3.52,1.15-4.93,1.84-2.48,3.22-3.24c1.38-.76,2.97-1.13,4.76-1.13s3.31,.37,4.67,1.1c1.36,.74,2.42,1.78,3.19,3.14,.77,1.36,1.15,2.95,1.15,4.76,0,.52-.03,1.06-.1,1.62Zm-5.57-3.08c0-.95-.32-1.71-.97-2.27-.65-.56-1.46-.84-2.43-.84s-1.71,.27-2.35,.81c-.64,.54-1.03,1.31-1.18,2.3h6.93Z"/>
    <path class="cls-1" d="M1358.54,551.75c1.25,1.37,1.88,3.26,1.88,5.65v10.56h-5.51v-9.82c0-1.21-.31-2.15-.94-2.82-.63-.67-1.47-1-2.53-1s-1.9,.33-2.53,1c-.63,.67-.94,1.61-.94,2.82v9.82h-5.54v-23.98h5.54v8.33c.56-.8,1.33-1.44,2.3-1.91s2.06-.71,3.27-.71c2.07,0,3.74,.69,4.99,2.06Z"/>
    <path class="cls-1" d="M1381.22,560.25h-12.54c.09,1.12,.45,1.98,1.08,2.58,.64,.59,1.42,.89,2.35,.89,1.38,0,2.34-.58,2.88-1.75h5.9c-.3,1.19-.85,2.26-1.64,3.21-.79,.95-1.78,1.7-2.96,2.24-1.19,.54-2.52,.81-3.99,.81-1.77,0-3.35-.38-4.73-1.13-1.38-.76-2.46-1.84-3.24-3.24-.78-1.4-1.17-3.05-1.17-4.92s.38-3.52,1.15-4.93,1.84-2.48,3.22-3.24c1.38-.76,2.97-1.13,4.76-1.13s3.31,.37,4.67,1.1c1.36,.74,2.42,1.78,3.19,3.14,.77,1.36,1.15,2.95,1.15,4.76,0,.52-.03,1.06-.1,1.62Zm-5.57-3.08c0-.95-.32-1.71-.97-2.27-.65-.56-1.46-.84-2.43-.84s-1.71,.27-2.35,.81c-.64,.54-1.03,1.31-1.18,2.3h6.93Z"/>
  </g>
</svg>