<?xml version="1.0" encoding="UTF-8"?>
<svg id="Layer_1" data-name="Layer 1" xmlns="http://www.w3.org/2000/svg" viewBox="0 0 87.62 38.29">
  <defs>
    <style>
      .cls-1 {
        fill: #114699;
      }
    </style>
  </defs>
  <path class="cls-1" d="M51.16,22.28l-18.36,3.39c-.78,.14-1.53-.37-1.67-1.16s.37-1.53,1.16-1.67l18.36-3.39c.78-.14,1.53,.37,1.67,1.16s-.37,1.53-1.16,1.67Z"/>
  <path class="cls-1" d="M44.71,17.91l-12.91,2.38c-.78,.14-1.53-.37-1.67-1.16s.37-1.53,1.16-1.67l12.91-2.38c.78-.14,1.53,.37,1.67,1.16s-.37,1.53-1.16,1.67Z"/>
  <path class="cls-1" d="M64.58,6.42c-.35-2.33-1.71-4.15-3.64-4.83-1.2-.43-3.55-.74-6.47,1.53-3.53-1.09-5.62,.04-6.59,.87-.83,.7-1.36,1.65-1.65,2.73l-20.43,3.78c-2.21,.41-3.68,2.54-3.28,4.75l2.89,15.64c.41,2.21,2.54,3.68,4.75,3.28l1.24-.23,4.05,2.79c.31,.21,.7,.29,1.07,.23s.7-.29,.93-.6l2.79-4.05,16.38-3.02c2.21-.41,3.68-2.54,3.28-4.75l-1.16-6.28c4.28-3.49,6.44-7.87,5.85-11.84h-.02Zm-8.49,20.06l-16.96,3.14c-.37,.06-.7,.29-.93,.6l-2.31,3.35-3.35-2.31c-.31-.21-.7-.29-1.07-.23l-1.82,.33c-.66,.12-1.3-.31-1.43-.97l-2.89-15.64c-.12-.66,.31-1.3,.97-1.43l19.87-3.66s0,.1,.02,.17c.85,3.92,4.44,7.23,9.69,8.96l1.16,6.28c.12,.66-.31,1.3-.97,1.43l.02-.02Zm.78-10.39c-5.02-1.65-7.35-4.61-7.85-6.88-.29-1.28,0-2.4,.74-3.04,.33-.29,.74-.48,1.24-.56,.89-.17,2.02,0,3.26,.48,.5,.19,1.07,.08,1.47-.27,1.55-1.38,3.1-1.94,4.26-1.53,.93,.33,1.57,1.26,1.78,2.56,.35,2.31-.76,5.91-4.87,9.23h-.02Z"/>
</svg>